<svg width="33" height="47" viewBox="0 0 33 47" fill="none" xmlns="http://www.w3.org/2000/svg">
<path d="M16.5253 38.292L23.1077 17.0322H33L22.2369 46.8387H10.7598L0 17.0389H9.94793L16.5253 38.292Z" fill="#FF5353"/>
<path d="M18.7546 9.21911C18.7084 10.5268 18.3042 11.701 17.398 12.6702C16.8079 13.2998 15.9845 13.3753 15.4202 12.8752C14.8843 12.3993 14.8586 11.6376 15.3551 10.9716C16.3752 9.60467 16.3331 8.661 15.1936 7.35604C13.4437 5.35411 13.4301 2.46783 15.1543 0.592628C15.7797 -0.0814209 16.6085 -0.193313 17.1891 0.323009C17.7439 0.813717 17.7466 1.57269 17.1891 2.29392C16.2477 3.52609 16.2843 4.59243 17.3546 5.77471C18.2212 6.71921 18.718 7.94143 18.7546 9.21911Z" fill="#FF5353"/>
<path d="M26.7837 9.21911C26.7376 10.5268 26.3333 11.701 25.4271 12.6702C24.837 13.2998 24.0136 13.3753 23.4507 12.8752C22.908 12.3993 22.8877 11.6376 23.3842 10.9716C24.4043 9.60467 24.3623 8.661 23.2228 7.35604C21.4728 5.35411 21.4592 2.46783 23.1848 0.592628C23.8088 -0.0814209 24.6376 -0.193313 25.2196 0.323009C25.7731 0.813717 25.7758 1.57269 25.2196 2.29392C24.2781 3.52609 24.3148 4.59243 25.3851 5.77471C26.2517 6.71908 26.7481 7.94148 26.7837 9.21911Z" fill="#FF5353"/>
<path d="M10.7214 9.21911C10.6752 10.5268 10.271 11.701 9.36482 12.6702C8.77472 13.2998 7.95129 13.3753 7.38697 12.8752C6.85114 12.3993 6.82536 11.6376 7.32186 10.9716C8.34198 9.60467 8.29993 8.661 7.16043 7.35604C5.41049 5.35411 5.39692 2.46783 7.12109 0.592628C7.74645 -0.0814209 8.5753 -0.193313 9.1559 0.323009C9.71073 0.813717 9.71344 1.57269 9.1559 2.29392C8.21446 3.52609 8.25109 4.59243 9.32141 5.77471C10.188 6.71921 10.6848 7.94143 10.7214 9.21911Z" fill="#FF5353"/>
</svg>
